# xmcd
#
# Track frame offsets:
#	150
#	7172
#	20667
#	26530
#	67580
#	77205
#	86997
#	92005
#	102215
#	114367
#	121597
#	137372
#	166122
#
# Disc length: 2379 seconds
#
# Revision: 1
# Processed by: cddbd v1.5.1PL0 Copyright (c) Steve Scherf et al.
# Submitted via: CDex 1.50Beta5
#
DISCID=9209490d
DTITLE=劇団四季 - ユタと不思議な仲間たち
DYEAR=1990
DGENRE=
TTITLE0=オーバーチュア
TTITLE1=座敷わらしはよ
TTITLE2=信じてみよう
TTITLE3=おれたちゃペドロ一家
TTITLE4=生きているってすばらしい
TTITLE5=友だちはいいもんだ
TTITLE6=授業のうた
TTITLE7=予言は当たるのかな
TTITLE8=ソウル・ギダユウ
TTITLE9=見果てぬ夢
TTITLE10=鐘の音の輪にのって
TTITLE11=ユタ!輝け!
TTITLE12=夢をつづけて
EXTD=
EXTT0=
EXTT1=
EXTT2=
EXTT3=
EXTT4=
EXTT5=
EXTT6=
EXTT7=
EXTT8=
EXTT9=
EXTT10=
EXTT11=
EXTT12=
PLAYORDER=
